<svg width="319" height="471" viewBox="0 0 319 471" fill="none" xmlns="http://www.w3.org/2000/svg">
<path d="M318.798 189.736C319.157 166.103 290.341 144.765 241.733 132.667L240.687 132.402L216.023 82.716L294.618 96.2808L151.727 0L85.682 128.827L84.5737 129.046C31.9845 139.364 0.374763 160.296 0.000129283 185.022C-0.218407 199.742 10.6148 213.557 31.3913 225.092V208.983C19.8245 201.365 13.7211 193.139 13.846 185.241C14.0333 172.004 33.764 152.819 88.7571 142.345C93.5024 141.44 98.4507 140.628 103.446 139.941C103.774 139.894 104.101 139.848 104.445 139.801C104.523 139.801 104.632 139.77 104.757 139.754L121.459 128.64C123.692 127.094 126.455 125.19 128.921 123.473C122.989 123.848 116.995 124.363 111.017 125.018L106.693 125.487L158.174 25.038L218.552 65.7326L185.6 60.035L219.317 127.969L214.837 127.266C207.141 126.049 199.118 125.065 190.907 124.316L216.882 141.611C217.007 141.643 217.147 141.658 217.272 141.689C217.506 141.721 217.694 141.752 217.896 141.799L218.287 141.861C222.72 142.642 226.997 143.469 231.04 144.374C285.924 156.456 305.155 176.249 304.968 189.533C304.858 197.245 298.802 205.112 287.422 212.324V228.245C307.746 217.428 318.595 204.16 318.813 189.752L318.798 189.736Z" fill="#042D2E"/>
<path d="M159.969 118.977L43.8165 196.292V470.445H276.105V196.292L159.969 118.977ZM114.404 457.77H99.0594V231.054L114.404 220.846V457.77ZM263.258 457.77H160.858V135.976L263.258 204.502V457.77Z" fill="#042D2E"/>
<path d="M204.238 457.771H220.909V291.028L204.238 279.883V457.771Z" fill="#042D2E"/>
<path d="M204.238 249.101L220.909 260.215V231.915L204.238 220.848V249.101Z" fill="#042D2E"/>
</svg>
